<?xml version="1.0" encoding="utf-8"?>
<!-- Generator: Adobe Illustrator 24.1.2, SVG Export Plug-In . SVG Version: 6.00 Build 0)  -->
<svg version="1.1" id="Layer_1" xmlns="http://www.w3.org/2000/svg" xmlns:xlink="http://www.w3.org/1999/xlink" x="0px" y="0px"
	 viewBox="0 0 565.4 570.1" style="enable-background:new 0 0 565.4 570.1;" xml:space="preserve">
<style type="text/css">
	.st0{fill:#0C2715;}
	.st1{fill:#53B956;}
	.st2{opacity:0;}
</style>
<g>
	<path class="st0" d="M61.4,171.4c-3.1,5.9-8.6,8.8-13.9,6.1l2.7-5.2c2.5,1,5.4,0.3,7.1-3c1.8-3.4,0.9-6.3-1.6-7.6
		c-7.2-3.7-10.6,14.5-21.5,8.8C29,167.8,27.9,162,31,156c2.9-5.7,8-8.2,13.3-6l-2.8,5.4c-2.1-0.9-4.8-0.1-6.5,3
		c-1.5,2.8-1.3,5.7,1.6,7.1c6.7,3.4,10.6-14.4,21.4-8.8C62.5,158.9,64.9,164.7,61.4,171.4z"/>
	<path class="st0" d="M74.7,148.8c-4.1,6.3-11.8,8.1-18.7,3.6c-6.9-4.6-8.1-12.5-4-18.8c4.1-6.3,11.9-8.4,18.8-3.8
		C77.8,134.4,78.9,142.4,74.7,148.8z M70.7,146.2c2.2-3.4,2-8.4-3-11.7c-5-3.3-9.6-1.6-11.8,1.8c-2.3,3.5-1.9,8.1,3.1,11.4
		C64.1,151,68.5,149.6,70.7,146.2z"/>
	<path class="st0" d="M60.9,120.5l3.6-4.2l19.8,9.6l-12.5-18.1l3.7-4.3l19.6,9.7L82.5,95.2l3.5-4.1l14.8,23.4l-3.7,4.4l-18.3-8.6
		L90.1,127l-3.7,4.4L60.9,120.5z"/>
	<path class="st0" d="M83.4,84.6c-1.4-1.4-1.4-3.6,0.1-5c1.4-1.3,3.5-1.3,4.9,0.1s1.3,3.6,0,4.9C86.9,86.1,84.8,86,83.4,84.6z
		 M88.8,89.1l3.9-3.8l18.5,18.9l-3.9,3.8L88.8,89.1z"/>
	<path class="st0" d="M119,77.7c-3.1-3.7-6.7-3.9-9.8-1.4c-3.1,2.6-3.5,6.2-0.4,9.9l9.5,11.3l-4.2,3.5l-17-20.2l4.2-3.5l1.9,2.3
		c0-2.8,1.4-5.7,3.8-7.7c4.7-4,10.8-4,15.6,1.7l10,11.9l-4.2,3.5L119,77.7z"/>
	<path class="st0" d="M129.6,55c3.6-2.4,7.4-2.5,10-1.5l-2.1-3.2l4.6-3.1L157,69.7c4,6,3.1,13.1-3.8,17.7c-5.9,3.9-12.2,3.9-16-0.6
		l4.5-3c2.2,1.8,5.7,1.8,8.8-0.3c3.5-2.3,4.7-6.2,1.8-10.6l-2.4-3.7c-0.2,2.8-1.6,6.4-5.2,8.7c-5.8,3.8-13.5,2.2-18-4.6
		S123.8,58.9,129.6,55z M133.2,58.4c-3.4,2.3-5,7-1.8,11.8s8.3,5.3,11.7,3.1c3.4-2.3,4.9-7.1,1.7-11.9
		C141.7,56.6,136.6,56.1,133.2,58.4z"/>
	<path class="st0" d="M241.8,24.4l-6,1l2.2,13.3l-5.4,0.9l-5.5-32.9l11.4-1.9c7.8-1.3,12.4,2.5,13.3,7.8
		C252.6,17.4,250.4,23,241.8,24.4z M241.1,20c4.2-0.7,5.8-3.1,5.2-6.4c-0.6-3.4-2.8-5.1-7-4.4l-6,1l1.8,10.7L241.1,20z"/>
	<path class="st0" d="M254.7,0.5l5.4-0.5l3.4,35.4l-5.4,0.5L254.7,0.5z"/>
	<path class="st0" d="M279.2,34.9c-7.5,0.2-13.4-5.1-13.6-13.4c-0.2-8.3,5.6-13.8,13.2-13.9c7.5-0.2,13.6,5,13.8,13.3
		C292.8,29.3,286.8,34.8,279.2,34.9z M279.1,30.2c4.1-0.1,8-3.1,7.9-9.1c-0.1-6-4.1-8.8-8.2-8.7c-4.1,0.1-7.8,3.1-7.6,9.1
		C271.4,27.4,275,30.3,279.1,30.2z"/>
	<path class="st0" d="M294.6,7.5l5.5,0.6l3.3,21.7l7.7-20.6l5.7,0.6l3.2,21.6l7.6-20.5l5.3,0.5l-10.8,25.5l-5.7-0.6l-3.3-20
		l-7.3,18.9l-5.7-0.6L294.6,7.5z"/>
	<path class="st0" d="M336.3,12.6l5.4,1l-5.1,26l-5.4-1L336.3,12.6z M337,5.6c0.4-1.9,2.2-3.1,4.1-2.8c1.9,0.4,3.1,2.2,2.7,4.1
		s-2.2,3.1-4.1,2.8C337.8,9.4,336.6,7.6,337,5.6z"/>
	<path class="st0" d="M362.8,31c1.3-4.7-0.6-7.8-4.4-8.8c-3.9-1.1-7.1,0.6-8.4,5.3l-3.9,14.3l-5.3-1.5l7-25.5l5.3,1.5l-0.8,2.9
		c2.3-1.6,5.5-2.1,8.5-1.2c6,1.6,9.4,6.6,7.5,13.8l-4.1,15l-5.2-1.4L362.8,31z"/>
	<path class="st0" d="M387.6,26.9c4,1.6,6.2,4.7,6.9,7.4l1.4-3.6l5.1,2.1l-10,24.9c-2.7,6.7-9,10-16.7,6.9
		c-6.5-2.6-10.1-7.8-8.5-13.5l5,2c-0.3,2.8,1.8,5.7,5.3,7.1c3.9,1.6,7.8,0.4,9.8-4.5l1.7-4.1c-2.4,1.5-6.1,2.3-10.2,0.7
		c-6.5-2.6-9.5-9.9-6.4-17.4C374,27.2,381.1,24.3,387.6,26.9z M386.9,31.7c-3.8-1.5-8.6-0.1-10.7,5.2c-2.1,5.3,0.3,9.8,4.1,11.4
		c3.8,1.5,8.6,0,10.8-5.3C393.1,37.7,390.7,33.3,386.9,31.7z"/>
	<path class="st0" d="M493.8,90.9c4.8,5.1,6.3,11.8,3.3,18.2l-4.5-4.8c1.4-3.7,0.4-7.2-2.3-10.1c-4.5-4.8-11.3-5.1-16.7,0.1
		c-5.5,5.2-5.7,11.9-1.1,16.7c2.7,2.9,6.1,4.1,9.9,2.9l4.5,4.8c-6.5,2.6-13.1,0.6-17.9-4.5c-6.4-6.9-6.6-17.2,0.7-24.1
		C476.9,83.3,487.3,84,493.8,90.9z"/>
	<path class="st0" d="M509.4,106.2l3.4,4.3l-27.9,22l-3.4-4.3L509.4,106.2z"/>
	<path class="st0" d="M493.7,145.5c-4.3-6.3-3-13.9,3.9-18.6c6.9-4.7,14.3-3.2,18.7,3.3c4.2,6.2,2.9,13.6-3.5,18
		c-0.8,0.5-1.5,1-2.3,1.4l-11.4-16.7c-3.4,2.8-3.8,6.8-1.6,10.2c1.9,2.8,4.3,3.4,6.6,3.1l3.3,4.9
		C502.7,152.2,497.3,150.8,493.7,145.5z M502.8,130.3l8.2,12.1c3.3-2.4,3.7-6.5,1.4-9.9C510.3,129.4,506.5,128.4,502.8,130.3z"/>
	<path class="st0" d="M531.1,154.6c2.1,3.9,1.7,7.7,0.5,10.1l3.4-1.8l2.6,4.9l-23.4,12.4l-2.6-4.9l3.5-1.8c-2.8-0.4-6.1-2.2-8.2-6.2
		c-3.2-6.1-0.8-13.6,6.4-17.4C520.5,146,527.9,148.4,531.1,154.6z M527.5,157.8c-1.9-3.6-6.5-5.7-11.5-3c-5.1,2.7-6.1,7.7-4.2,11.3
		c1.9,3.7,6.6,5.6,11.6,2.9C528.4,166.4,529.4,161.5,527.5,157.8z"/>
	<path class="st0" d="M536.4,195.8c4.5-1.8,5.9-5.1,4.4-8.8c-1.5-3.8-4.8-5.3-9.3-3.5l-13.8,5.4l-2-5.1l24.6-9.6l2,5.1l-2.8,1.1
		c2.7,0.9,4.9,3.1,6.1,6.1c2.3,5.8,0.3,11.5-6.6,14.2l-14.5,5.7l-2-5.1L536.4,195.8z"/>
	<path class="st0" d="M550.9,202.4l1.6,5.2l-25.3,7.7l-1.6-5.2L550.9,202.4z M557.4,199.7c1.9-0.6,3.8,0.4,4.4,2.3
		c0.6,1.8-0.5,3.8-2.3,4.3c-1.9,0.6-3.8-0.4-4.4-2.3C554.5,202.2,555.5,200.2,557.4,199.7z"/>
	<path class="st0" d="M547.1,234.4c4.7-1.1,6.6-4.2,5.7-8.1c-0.9-3.9-3.9-6-8.6-4.9l-14.4,3.2l-1.2-5.3l25.8-5.8l1.2,5.3l-3,0.7
		c2.5,1.3,4.4,3.8,5.1,6.9c1.4,6-1.4,11.4-8.6,13.1l-15.2,3.4l-1.2-5.3L547.1,234.4z"/>
	<path class="st0" d="M562.4,254.4c0.5,4.3-1.2,7.7-3.3,9.6l3.8-0.4l0.6,5.5l-26.7,2.9c-7.2,0.8-13-3.3-13.9-11.5
		c-0.8-7,2.2-12.6,7.9-13.9l0.6,5.4c-2.6,1.1-4.2,4.2-3.8,8c0.5,4.2,3.4,7.1,8.6,6.5l4.4-0.5c-2.4-1.4-4.9-4.3-5.4-8.6
		c-0.7-6.9,4.3-13,12.4-13.9C555.7,242.5,561.6,247.4,562.4,254.4z M557.8,256c-0.4-4.1-3.9-7.6-9.6-7c-5.7,0.6-8.6,4.9-8.1,8.9
		c0.4,4.1,4.1,7.6,9.7,7C555.4,264.3,558.2,260.1,557.8,256z"/>
	<path class="st0" d="M560.4,362.9l-5.8,18.7l-4.3-1.3l4.2-13.5l-9.4-2.9l-3.3,10.5l-4.3-1.3l3.3-10.5l-13.9-4.3l1.6-5.2
		L560.4,362.9z"/>
	<path class="st0" d="M517.3,384c2.9-7,10.1-10.1,17.7-6.9s10.5,10.2,7.5,17.4c-2.9,6.9-9.8,9.8-17,6.8c-0.8-0.4-1.6-0.7-2.4-1.2
		l7.8-18.6c-4.2-1.3-7.8,0.5-9.4,4.2c-1.3,3.1-0.5,5.5,1,7.2l-2.3,5.4C516.6,395.2,514.8,389.9,517.3,384z M535,383.3l-5.7,13.5
		c3.8,1.5,7.4-0.5,9-4.2C539.7,389.1,538.6,385.4,535,383.3z"/>
	<path class="st0" d="M508.9,402.8l2.5-4.9l23.4,12.2l-2.5,4.8l-3.4-1.8c1.6,2.6,1.9,5.7,0.1,9l-5-2.6l0.6-1.2
		c1.9-3.6,1.5-6.6-3.4-9.2L508.9,402.8z"/>
	<path class="st0" d="M522.5,423.8l1.6-2.7l3.8,2.3l-1.6,2.7l5.6,3.4l-2.8,4.7l-5.6-3.4l-3.3,5.5l-3.8-2.3l3.3-5.5l-12.5-7.6
		c-1.7-1-2.8-0.8-4,1.2l-1.7,2.9l-3.9-2.4l2.2-3.7c2.4-4,5.6-5.5,10.2-2.8L522.5,423.8z"/>
	<path class="st0" d="M518.1,439.3l-3.1,4.5l-22-14.8l3.1-4.5L518.1,439.3z M524.3,442.6c1.6,1.1,2.1,3.2,1,4.9
		c-1.1,1.6-3.2,2-4.8,0.9c-1.6-1.1-2.1-3.2-1-4.8C520.6,441.9,522.7,441.5,524.3,442.6z"/>
	<path class="st0" d="M519.2,453.8l-3.2,4.4l-28.7-21l3.2-4.4L519.2,453.8z"/>
	<path class="st0" d="M505.2,457.3l-3.4,4.3l-20.7-16.4l3.4-4.3L505.2,457.3z M511.2,461c1.5,1.2,1.8,3.4,0.6,4.9
		c-1.2,1.5-3.4,1.8-4.9,0.5c-1.5-1.2-1.8-3.4-0.6-4.9C507.5,460.1,509.6,459.8,511.2,461z"/>
	<path class="st0" d="M483.6,475.8l-5.1-20.6l-8,8.9l-3.3-3l12.2-13.7l3.3,3l5,20.7l8-9l3.3,3l-12.2,13.7L483.6,475.8z"/>
	<path class="st0" d="M483.7,481.8l-3.9,3.9L461.2,467l3.9-3.9L483.7,481.8z M489.2,486.3c1.4,1.4,1.4,3.6,0,5
		c-1.4,1.4-3.5,1.3-4.9,0c-1.4-1.4-1.4-3.6,0-4.9C485.6,484.9,487.8,484.9,489.2,486.3z"/>
	<path class="st0" d="M453.7,493.5c3.2,3.7,6.8,3.9,9.8,1.3c3.1-2.6,3.4-6.2,0.3-9.9l-9.6-11.2l4.2-3.6l17.2,20.1l-4.2,3.6l-2-2.3
		c0.1,2.8-1.3,5.7-3.7,7.7c-4.7,4-10.8,4.1-15.6-1.5l-10.2-11.8l4.1-3.5L453.7,493.5z"/>
	<path class="st0" d="M443.2,516.3c-3.6,2.4-7.4,2.6-10,1.6l2.2,3.2l-4.6,3.1L415.8,502c-4-6-3.2-13.1,3.6-17.7c5.8-4,12.1-4,16,0.5
		l-4.5,3c-2.2-1.8-5.7-1.7-8.8,0.4c-3.5,2.4-4.7,6.3-1.7,10.7l2.5,3.7c0.1-2.8,1.5-6.4,5.1-8.8c5.8-3.9,13.5-2.3,18.1,4.4
		C450.6,504.9,449,512.4,443.2,516.3z M439.6,513c3.4-2.3,4.9-7,1.7-11.8s-8.3-5.3-11.7-3c-3.4,2.3-4.8,7.2-1.6,11.9
		C431.2,514.9,436.2,515.4,439.6,513z"/>
	<path class="st0" d="M321.9,550.7l15.5-2.6l-2.4-14.4l5.4-0.9l5.5,32.9l-5.4,0.9l-2.4-14.1l-15.5,2.6l2.4,14.1l-5.4,0.9l-5.5-32.9
		l5.4-0.9L321.9,550.7z"/>
	<path class="st0" d="M300.8,564.9c-4.5,0.2-7.6-1.8-9.4-3.8l0.2,3.8l-5.5,0.3l-1.3-26.4l5.5-0.3l0.2,3.9c1.6-2.3,4.6-4.6,9-4.8
		c6.9-0.3,12.6,5,13,13.2C313,558.9,307.8,564.6,300.8,564.9z M299.5,560.2c4.1-0.2,7.9-3.5,7.6-9.2c-0.3-5.7-4.4-8.8-8.4-8.6
		c-4.1,0.2-7.9,3.6-7.6,9.3C291.3,557.4,295.3,560.4,299.5,560.2z"/>
	<path class="st0" d="M275.3,538.2l5.5,0.2l-1.1,26.4l-5.5-0.2l0.2-3.8c-1.6,2.6-4.3,4.1-8.1,4l0.2-5.7l1.4,0.1c4,0.2,6.6-1.4,6.8-7
		L275.3,538.2z"/>
	<path class="st0" d="M259.4,563.8l-4.9-22.3l-10,20.5l-5.8-0.7l13.1-25.1l6.5,0.8l6.8,27.5L259.4,563.8z"/>
	<path class="st0" d="M230,531.9c7.4,1.7,11.7,8.1,9.9,16.2c-1.8,8.1-8.2,12.1-15.9,10.4c-7.4-1.6-11.4-7.9-9.7-15.5
		c0.2-0.9,0.4-1.7,0.8-2.6l19.7,4.4c0.6-4.3-1.9-7.6-5.8-8.5c-3.3-0.7-5.5,0.5-6.9,2.2l-5.8-1.3C218.8,533.2,223.7,530.5,230,531.9z
		 M233.8,549.2l-14.3-3.2c-0.8,4,1.8,7.2,5.8,8.1C228.9,554.9,232.3,553.1,233.8,549.2z"/>
	<path class="st0" d="M206.3,525.3c6,2,9.1,6.9,7.8,11.6l-5.4-1.8c0.5-2.1-0.9-4.4-3.8-5.4c-3-1-5-0.2-5.6,1.5
		c-1.6,4.9,13.9,6.9,10.9,16.1c-1.3,4-6.1,6-12.1,4.1c-5.7-1.9-8.4-6.2-7.1-11.3l5.2,1.7c-0.5,2.2,0.7,4.3,3.5,5.2
		c2.8,0.9,4.6,0.3,5.2-1.4c1.7-5.1-13.4-6.9-10.7-16.1C195.6,525.4,200.4,523.4,206.3,525.3z"/>
	<path class="st0" d="M184.6,541.4l2.9,1.2l-1.7,4.1l-2.9-1.2l-2.5,6.1l-5.1-2.1l2.5-6.1l-5.9-2.5l1.7-4.1l5.9,2.5l5.6-13.5
		c0.8-1.8,0.4-2.9-1.8-3.7l-3.1-1.3l1.7-4.2l4,1.7c4.3,1.8,6.3,4.7,4.2,9.7L184.6,541.4z"/>
	<path class="st0" d="M166.3,546c-0.8,1.8-2.9,2.5-4.7,1.7c-1.7-0.8-2.5-2.9-1.6-4.6c0.8-1.8,2.9-2.5,4.6-1.7
		C166.4,542.1,167.1,544.2,166.3,546z M168.6,539.3l-4.9-2.3l11.3-23.9l4.9,2.3L168.6,539.3z"/>
	<path class="st0" d="M147.5,515c-2.4,4.2-1.3,7.7,2.1,9.7c3.5,2,7,1.1,9.4-3.1l7.3-12.8l4.8,2.7l-13.1,23l-4.8-2.7l1.5-2.6
		c-2.6,1-5.8,0.7-8.6-0.9c-5.4-3.1-7.5-8.8-3.8-15.2l7.7-13.6l4.7,2.7L147.5,515z"/>
	<path class="st0" d="M122.5,512.9c-3.5-2.6-4.9-6.1-4.9-8.9l-2.3,3.1l-4.5-3.3l15.9-21.7c4.3-5.8,11.2-7.4,17.9-2.6
		c5.7,4.2,7.8,10.1,4.9,15.2l-4.4-3.2c1-2.7-0.3-5.9-3.4-8.2c-3.4-2.5-7.5-2.3-10.6,2l-2.6,3.6c2.7-0.8,6.5-0.7,10,1.8
		c5.6,4.1,6.8,11.9,1.9,18.5C135.7,515.9,128.1,517,122.5,512.9z M124.3,508.3c3.3,2.4,8.3,2.3,11.7-2.4c3.4-4.6,2.2-9.6-1.1-12
		c-3.3-2.4-8.4-2.1-11.7,2.5C119.8,501,121,505.9,124.3,508.3z"/>
	<path class="st0" d="M54.8,418.3l3,5.2l11.7-6.8l2.7,4.7l-28.9,16.7l-5.8-10c-4-6.9-2-12.5,2.7-15.2
		C44.4,410.6,50.4,410.8,54.8,418.3z M50.9,420.5c-2.1-3.7-4.9-4.3-7.8-2.7c-3,1.7-3.8,4.4-1.6,8.1l3,5.2l9.4-5.4L50.9,420.5z"/>
	<path class="st0" d="M27.9,414.6l-2.4-4.9l31.9-15.5l2.4,4.9L27.9,414.6z"/>
	<path class="st0" d="M51.6,379.6c2.8,7-0.1,14.3-7.8,17.4c-7.7,3.1-14.9-0.5-17.7-7.5c-2.8-7,0-14.5,7.7-17.6
		C41.5,368.8,48.8,372.5,51.6,379.6z M47.1,381.4c-1.5-3.8-5.7-6.5-11.3-4.2c-5.6,2.2-6.8,6.9-5.3,10.7c1.5,3.8,5.6,6.2,11.1,4
		C47.3,389.6,48.7,385.2,47.1,381.4z"/>
	<path class="st0" d="M20.4,374.7l-1.4-5.4l19.2-10.6l-22-0.1l-1.4-5.5L34,342.5l-21.9,0l-1.3-5.2l27.7,1.4l1.4,5.6l-17.6,10
		l20.3,0.3l1.4,5.6L20.4,374.7z"/>
	<path class="st0" d="M4.1,335.6c-1.9,0.3-3.7-1-4-2.9c-0.3-1.9,1-3.7,2.9-4c1.9-0.3,3.7,1,4,2.9C7.3,333.5,6,335.3,4.1,335.6z
		 M10.9,333.8l-0.9-5.4l26.1-4.2l0.9,5.4L10.9,333.8z"/>
	<path class="st0" d="M18.9,302.6c-4.8,0.4-7.1,3.3-6.8,7.2c0.3,4,3.1,6.4,7.9,6l14.7-1.3l0.5,5.5l-26.3,2.2l-0.5-5.5l3-0.3
		c-2.3-1.6-3.8-4.4-4.1-7.5c-0.5-6.2,3-11.1,10.3-11.8l15.5-1.3l0.5,5.4L18.9,302.6z"/>
	<path class="st0" d="M6.5,280.8c0.1-4.3,2.2-7.5,4.5-9.1l-3.8-0.1l0.1-5.5l26.9,0.7c7.2,0.2,12.5,5,12.3,13.3
		c-0.2,7.1-3.8,12.2-9.7,12.7l0.1-5.4c2.8-0.7,4.7-3.6,4.8-7.4c0.1-4.2-2.4-7.5-7.7-7.6l-4.4-0.1c2.2,1.7,4.3,5,4.2,9.3
		c-0.2,7-6,12.3-14.1,12.1S6.3,287.8,6.5,280.8z M11.3,279.8c-0.1,4.1,2.9,8.1,8.6,8.3c5.7,0.2,9.1-3.7,9.2-7.8
		c0.1-4.1-3-8.1-8.7-8.3C14.7,271.9,11.4,275.7,11.3,279.8z"/>
	<g>
		<path class="st1" d="M182.7,37.3l-14.5-5.7l6.4-2.7l14.4,5.7L183.1,49l-6.4,2.7L182.7,37.3z"/>
		<path class="st1" d="M196.2,32.2l-14.1-6.5l6.5-2.3l14.1,6.5l-6.7,14l-6.5,2.3L196.2,32.2z"/>
		<path class="st1" d="M432.2,60.7l-3.5-15.2l5.8,3.7l3.4,15.1l-15.2,3.2l-5.8-3.7L432.2,60.7z"/>
		<path class="st1" d="M444.1,68.9l-2.7-15.3l5.6,4l2.6,15.3l-15.3,2.4l-5.6-4L444.1,68.9z"/>
		<path class="st1" d="M553.7,309.6l11.7-10.2l-0.5,6.9l-11.7,10.2l-10-11.8l0.5-6.9L553.7,309.6z"/>
		<path class="st1" d="M552.1,324l12.2-9.6l-0.9,6.9l-12.2,9.5l-9.4-12.4l0.9-6.9L552.1,324z"/>
		<path class="st1" d="M390.3,534.5l14.5,5.6l-6.3,2.8l-14.5-5.6l5.8-14.4l6.3-2.8L390.3,534.5z"/>
		<path class="st1" d="M376.9,539.8l14.2,6.4l-6.5,2.4l-14.1-6.4l6.6-14.1l6.5-2.4L376.9,539.8z"/>
		<path class="st1" d="M87.5,469.2l-0.3,15.5l-4.7-5l0.4-15.5l15.5,0.6l4.7,5L87.5,469.2z"/>
		<path class="st1" d="M78,458.3l-1.2,15.5l-4.5-5.3l1.2-15.5l15.4,1.4l4.5,5.3L78,458.3z"/>
		<path class="st1" d="M22.5,227.2l-13,8.5L11,229l13-8.5l8.3,13.1l-1.5,6.8L22.5,227.2z"/>
		<path class="st1" d="M26.1,213.2L12.6,221l1.8-6.7l13.4-7.8l7.6,13.5l-1.8,6.7L26.1,213.2z"/>
	</g>
</g>
<path id="SVGID_x5F_1_x5F_" style="fill:none;" d="M1924.3,286.4c0,139.2-112.8,252-252,252s-252-112.8-252-252s112.8-252,252-252
	S1924.3,147.3,1924.3,286.4z"/>
<text><textPath  xlink:href="#SVGID_x5F_1_x5F_" startOffset="75.4069%">
<tspan  style="font-family:'Poppins-Medium'; font-size:48px; letter-spacing:-49;">Sowing  &gt;&gt;  Plowing  &gt;&gt;  Cleaning  &gt;&gt;  Fertilizing  &gt;&gt;  Harvesting  &gt;&gt;  Plowing  &gt;&gt;</tspan></textPath>
</text>
<g class="st2">
	<path class="st1" d="M286.4,379.6c-42.7,0.2-80.9-29-89.9-67.6c-4.8-20.7-0.8-40.5,7.8-59.4c3.3-7.2,11.5-9.9,18.5-6.7
		c6.9,3.2,9.8,10.8,7.4,18.3c-2.5,8-5.3,16-6.7,24.3c-2.4,13.8,1.8,26.2,10.2,37.2c19.4,25.2,54.4,32.9,79.9,17.3
		c22.1-13.4,31.8-37.9,25.9-65.6c-0.9-4.2-2.3-8.3-3.3-12.5c-1.8-7.5,2.1-14.8,9.1-17.1c7.2-2.4,15.2,0.8,17.6,8
		c10.1,30.1,10.6,59.7-8.5,86.9C337.7,366.8,314.2,378.9,286.4,379.6z"/>
	<path class="st1" d="M283.3,239.3c0,0.4-0.2,0.7-0.5,1c-2,1.9-3,4.2-5.4,5.2c-17.5,7.1-33.8,4.1-48.8-6.8
		c-14.6-10.5-24.7-24.7-32.5-40.8c-0.3-0.6-0.3-1.2-0.6-2.3c14.7-4.7,29.4-6.4,44.5-4c9.8,1.6,18.8,5.1,26.4,11.9
		c8.8,7.8,13.5,17.8,15.9,29.1c0.5,2.1,0.2,4.1,0.8,6.1C283.3,239,283.3,239.1,283.3,239.3L283.3,239.3z M271.1,229.2
		c0.3,0.2,0.7,0.3,1,0.5c0.2-0.1,0.1-0.1,0.2-0.2c-0.8-2.2-1.4-4.5-2.3-6.6c-10.2-23.7-41.1-26.9-60.7-21.1
		c-0.5,0.1-0.7,0.6-0.6,1.1c0,0.1,0,0.1,0.1,0.1c1,1.7,2,3.4,3.1,5.1c8.9,12.8,18.9,24.4,34,30c8.1,3,16.3,3.4,25.2,0.2
		c-7.3-6.5-14.4-12-23.1-15.1c-2.4-0.8-5.3-1.5-4.1-4.9c1.2-3.3,4.1-2.4,6.3-1.2C257.3,221,264.2,225.1,271.1,229.2z"/>
	<path class="st1" d="M285,240.3c-0.3-0.3-0.5-0.6-0.6-1c-0.1-0.1-0.1-0.2-0.1-0.3c1.9-28.2,21.4-47.4,50.6-48.5
		c10.3-0.4,20.7,1.5,31,2.9c4.7,0.6,6,3.5,4,7.5c-8.5,16.2-19.2,30.5-35.1,40.3c-14.7,9-35.3,10.3-46,3.3
		C287.3,243.5,286.3,241.8,285,240.3z M296.4,228.1c1.4-0.9,2.7-2,4.1-2.7c5.8-3.1,11.6-6.3,17.6-8.9c0.2-0.1,0.5-0.1,0.7-0.1
		c2.8,0.1,4.1,3.5,2.1,5.4c-0.2,0.2-0.5,0.5-0.7,0.6c-1.2,1-3,1.1-4.6,1.8c-7.3,3.2-13.6,7.6-19.2,13.5c21.4,8.1,55.4-12,62.3-36.2
		c0.1-0.3-0.1-0.7-0.5-0.7c-14.4-2.6-28.6-3.1-42.2,3.2c-10.3,4.7-17.2,12.6-20.1,23.8c-0.1,0.3-0.1,0.7-0.2,1.1
		C296,228.5,296.3,228.3,296.4,228.1z"/>
	<path class="st1" d="M269.2,291.1c0-8.4-0.1-16.9,0-25.3c0.1-7.9,5.4-13.3,12.9-13.3c7.5,0,13,5.4,13.1,13.2
		c0.1,17,0.1,34.1,0,51.1c-0.1,7.7-5.8,13.4-13,13.4c-7.3,0-12.9-5.6-13-13.3C269.1,308.3,269.2,299.7,269.2,291.1z"/>
</g>
</svg>
